<svg xmlns="http://www.w3.org/2000/svg" width="512" height="512"><g data-name="Contact List"><path d="M440 144a8 8 0 0 0 8-8V40a8 8 0 0 0-16 0v96a8 8 0 0 0 8 8z"/><path d="M448 304v-24a8 8 0 0 0-16 0v192a24.028 24.028 0 0 1-24 24H88a40 40 0 0 1 0-80h264a32.036 32.036 0 0 0 32-32V128h32V32h-32a32.036 32.036 0 0 0-32-32H88a56.063 56.063 0 0 0-56 56v400a56.063 56.063 0 0 0 56 56h320a40.045 40.045 0 0 0 40-40v-72h32v-96zM384 48h16v64h-16zM48 56a40.045 40.045 0 0 1 40-40h264a16.019 16.019 0 0 1 16 16v352a16.019 16.019 0 0 1-16 16H88a55.833 55.833 0 0 0-40 16.846zm416 328h-16v-64h16z"/><path d="M88 448h64.14a8 8 0 0 0 0-16H88a8 8 0 0 0 0 16zm328-24V256h32v-96h-32v-8a8 8 0 0 0-16 0v272a8.038 8.038 0 0 1-8 8H216.14a8 8 0 0 0 0 16H392a24 24 0 0 0 24-24zm0-248h16v64h-16z"/><circle cx="184.14" cy="440" r="8"/><circle cx="392" cy="472" r="8"/><path d="M88 480h272a8 8 0 0 0 0-16H88a8 8 0 0 0 0 16zm16-144a8 8 0 0 0 8-8v-45.767a24.064 24.064 0 0 1 19.294-23.533l28.956-5.791a48 48 0 0 0 95.5 0l28.956 5.791A24.064 24.064 0 0 1 304 282.233V328a8 8 0 0 0 16 0v-45.767a40.1 40.1 0 0 0-32.155-39.222l-38.212-7.643-.046-.009-9.587-1.918V224a7.985 7.985 0 0 0-.251-1.956 54.844 54.844 0 0 0 21.3-28.711l.113-.356 8.338-38.515a60.8 60.8 0 0 0-12.435-51.007 64.289 64.289 0 0 0-99.311 0 60.821 60.821 0 0 0-12.425 51.054l.471 2.173c0 .026.011.05.016.075l7.762 35.854.193.722a54.872 54.872 0 0 0 22.338 29.416A8.059 8.059 0 0 0 176 224v9.441l-9.586 1.918-.048.009-38.21 7.643A40.1 40.1 0 0 0 96 282.233V328a8 8 0 0 0 8 8zm66.175-222.462a48.291 48.291 0 0 1 74.465 0 45.254 45.254 0 0 1 9.571 21.274 35.34 35.34 0 0 0-27.4-2.431c-7.4 2.367-13.9 3.619-18.812 3.619s-11.412-1.252-18.812-3.619a35.226 35.226 0 0 0-28.695 3.156 45.2 45.2 0 0 1 9.683-21.999zm-1.043 75.306l-7.09-32.75a18.755 18.755 0 0 1 22.27-8.475C193.4 150.526 201.365 152 208 152s14.6-1.474 23.688-4.381a18.842 18.842 0 0 1 21.4 7.048l-7.4 34.178C240.374 205.1 225.039 216 207.407 216s-32.966-10.9-38.275-27.156zM192 246.559v-16.637a58.065 58.065 0 0 0 32-.347v16.984l15.95 3.19a32 32 0 0 1-63.9 0z"/><path d="M144 304a8 8 0 0 0-8 8v16a8 8 0 0 0 16 0v-16a8 8 0 0 0-8-8zm128 0a8 8 0 0 0-8 8v16a8 8 0 0 0 16 0v-16a8 8 0 0 0-8-8z"/></g></svg>