<?xml version="1.0"?>
<svg xmlns="http://www.w3.org/2000/svg" viewBox="0 0 512 512" width="512" height="512"><g id="User_Female_Side" data-name="User Female Side"><g id="Outline"><path d="M380.13,50.55a8,8,0,1,0-2.7-10.99A7.954,7.954,0,0,0,380.13,50.55Z"/><path d="M39.79,360.31l-.03-.07A240.043,240.043,0,0,1,256,16a238.361,238.361,0,0,1,96.67,20.26,8,8,0,1,0,6.45-14.64A255.209,255.209,0,0,0,256.01,0H256A256.308,256.308,0,0,0,20.12,156.35,254.8,254.8,0,0,0,5.2,204.41,258.353,258.353,0,0,0,6.58,313.92,254.236,254.236,0,0,0,25.35,367.2a8.05,8.05,0,0,0,7.21,4.52,8,8,0,0,0,7.23-11.41Z"/><path d="M48.27,383.53a7.915,7.915,0,0,0-4.37,1.31,7.979,7.979,0,1,0,4.37-1.31Z"/><path d="M505.19,197.1A255.065,255.065,0,0,0,455.38,95.41a257.559,257.559,0,0,0-39.89-39.67,8,8,0,0,0-9.98,12.51A240.006,240.006,0,1,1,73.53,411.91a8,8,0,1,0-12.16,10.4,256.84,256.84,0,0,0,85.71,65.43A255.252,255.252,0,0,0,255.99,512H256A256.22,256.22,0,0,0,505.19,197.1Z"/><path d="M321.07,379.68a32.565,32.565,0,0,1-1.164-4.9,8,8,0,0,0-15.813,2.437c1.7,11.091,5.244,13.695,6.417,14.557a177.662,177.662,0,0,1,48.658,54.207,8,8,0,1,0,13.824-8.056A193.567,193.567,0,0,0,321.07,379.68Z"/><path d="M302.87,35.72A164.812,164.812,0,0,0,268,32c-2.08,0-4.03.03-5.94.11-5.14.18-10.35.61-15.47,1.28a7.987,7.987,0,0,0-6.9,8.96,8.018,8.018,0,0,0,7.92,6.97,7.408,7.408,0,0,0,1.05-.07c4.6-.6,9.31-.99,13.98-1.16,1.73-.06,3.48-.09,5.36-.09A147.862,147.862,0,0,1,416,196v92a48,48,0,0,1-48,48H256V208h16a8,8,0,0,0,0-16H224V168a8,8,0,0,0-16,0v24H192V136a8,8,0,0,0-16,0v56H160V168a8,8,0,0,0-16,0v24H120.05A148.185,148.185,0,0,1,191.77,69.12a8,8,0,1,0-8.26-13.71,164.442,164.442,0,0,0-66.62,76.75A163.1,163.1,0,0,0,104,196v12h23.06l-26.51,52.99a16,16,0,0,0,7.7,21.73l20.9,9.5,12.1,49.48A23.986,23.986,0,0,0,164.56,360H200a8.036,8.036,0,0,1,8,8v11.47a201.059,201.059,0,0,0-63.11,61.35,8,8,0,0,0,13.4,8.76v-.02a186.4,186.4,0,0,1,61.74-58.65l3.94-2.3L224,368a24,24,0,0,0-24-24H164.56a7.981,7.981,0,0,1-7.77-6.1l-13.94-57-27.98-12.74v-.01L144,209.9V208h96V336a16.019,16.019,0,0,0,16,16H368a63.95,63.95,0,0,0,64-64V196A163.9,163.9,0,0,0,302.87,35.72Z"/><path d="M216.55,56.68A8,8,0,1,0,209,51.32,7.961,7.961,0,0,0,216.55,56.68Z"/></g></g></svg>
