<svg xmlns="http://www.w3.org/2000/svg" width="512" height="512"><g data-name="User 1 Female 2 Male"><path d="M48 224a8 8 0 0 0-8 8v80a8 8 0 0 0 16 0v-80a8 8 0 0 0-8-8z"/><path d="M120 208a8 8 0 0 0-8-8 32.013 32.013 0 0 1-31.95-30.251l15.95-3.19v-16.637a58.065 58.065 0 0 0 32-.347V160a8 8 0 0 0 16 0v-16a7.985 7.985 0 0 0-.251-1.956 54.844 54.844 0 0 0 21.3-28.711l.113-.356 8.338-38.516a60.8 60.8 0 0 0-12.435-51.006 64.289 64.289 0 0 0-99.311 0 60.821 60.821 0 0 0-12.427 51.054l.471 2.174c0 .025.011.05.016.076l7.762 35.853.193.721a54.872 54.872 0 0 0 22.338 29.416A8.059 8.059 0 0 0 80 144v9.441l-9.589 1.918-.042.009-38.214 7.642A40.109 40.109 0 0 0 0 202.234V312a8 8 0 0 0 16 0V202.234A24.065 24.065 0 0 1 35.294 178.7l28.956-5.791A48.02 48.02 0 0 0 112 216a8 8 0 0 0 8-8zM74.175 33.539a48.29 48.29 0 0 1 74.465 0 45.335 45.335 0 0 1 9.378 20.1 42.444 42.444 0 0 0-12.242-5.439l-2.593-.587-2.427 1.074C140.591 48.76 124.1 56 112 56s-28.591-7.24-28.751-7.311l-2.431-1.08-2.593.591a42.966 42.966 0 0 0-13.57 6.312 45.221 45.221 0 0 1 9.52-20.973zm-1.043 75.3L66.043 76.1a26.384 26.384 0 0 1 13.585-11.592C85.63 66.9 99.859 72 112 72s26.347-5.093 32.357-7.486a26.973 26.973 0 0 1 12.729 10.139l-7.4 34.191C144.375 125.1 129.039 136 111.407 136s-32.967-10.9-38.275-27.156zm406.713 54.171l-38.214-7.642-.042-.009-9.589-1.918V144a8.059 8.059 0 0 0-.107-1.251 54.872 54.872 0 0 0 22.338-29.416l.114-.356 7.855-36.269v-.009l.485-2.237a60.8 60.8 0 0 0-12.435-51.007 64.288 64.288 0 0 0-99.31 0 60.824 60.824 0 0 0-12.426 51.054l8.249 38.1.192.721a54.844 54.844 0 0 0 21.3 28.711A7.985 7.985 0 0 0 368 144v16a8 8 0 0 0 16 0v-10.425a58.065 58.065 0 0 0 32 .347v16.637l15.95 3.19A32.013 32.013 0 0 1 400 200a8 8 0 0 0 0 16 48.018 48.018 0 0 0 47.75-43.091l28.956 5.791A24.065 24.065 0 0 1 496 202.234V312a8 8 0 0 0 16 0V202.234a40.109 40.109 0 0 0-32.155-39.224zM363.36 33.538a48.29 48.29 0 0 1 74.465 0 45.255 45.255 0 0 1 9.524 20.975 42.981 42.981 0 0 0-13.574-6.313l-2.592-.587-2.427 1.074C428.591 48.76 412.1 56 400 56s-28.591-7.24-28.751-7.311l-2.431-1.08-2.594.591a42.416 42.416 0 0 0-12.237 5.437 45.278 45.278 0 0 1 9.373-20.099zM400.593 136c-17.632 0-32.968-10.9-38.277-27.156l-7.4-34.193a26.7 26.7 0 0 1 12.716-10.142C373.631 66.9 387.859 72 400 72s26.362-5.1 32.367-7.49a26.367 26.367 0 0 1 13.591 11.59l-7.09 32.747C433.56 125.1 418.224 136 400.593 136z"/><path d="M464 224a8 8 0 0 0-8 8v80a8 8 0 0 0 16 0v-80a8 8 0 0 0-8-8zm-93.017 168.438l-68.551-13.71a8.023 8.023 0 0 1-6.432-7.845v-15.05A71.984 71.984 0 0 0 328 296v-8a8 8 0 0 0-16 0v8a56 56 0 0 1-112 0v-8a8 8 0 0 0-16 0v8a71.984 71.984 0 0 0 32 59.833v15.05a8.023 8.023 0 0 1-6.432 7.845l-68.551 13.71A56.152 56.152 0 0 0 96 447.351V504a8 8 0 0 0 16 0v-56.649a40.109 40.109 0 0 1 32.155-39.224L200 396.958v9.442c0 36.179 50.082 63.5 52.214 64.647l3.786 2.035 3.786-2.035C261.918 469.9 312 442.579 312 406.4v-9.442l55.845 11.169A40.109 40.109 0 0 1 400 447.351V504a8 8 0 0 0 16 0v-56.649a56.152 56.152 0 0 0-45.017-54.913zM296 406.4c0 20.079-26.105 39.989-40.007 48.384C242.087 446.41 216 426.544 216 406.4v-12.913a24.065 24.065 0 0 0 16-22.6v-7.011a71.831 71.831 0 0 0 48 0v7.011a24.064 24.064 0 0 0 16 22.6z"/><path d="M152 480a8 8 0 0 0-8 8v16a8 8 0 0 0 16 0v-16a8 8 0 0 0-8-8zm208 0a8 8 0 0 0-8 8v16a8 8 0 0 0 16 0v-16a8 8 0 0 0-8-8zM144.979 202.37A119.365 119.365 0 0 0 136 248v88.42A31.581 31.581 0 0 0 167.58 368H184a8 8 0 0 0 0-16h-16.42A15.65 15.65 0 0 1 152 336.42V248a103.548 103.548 0 0 1 29.069-72.12 8 8 0 0 0-11.529-11.1 119.737 119.737 0 0 0-24.561 37.59zm55.481-43.65a7.979 7.979 0 0 0 3.96-1.05l.17-.1h-.01a8 8 0 0 0-8.09-13.8l-.011.01a7.99 7.99 0 0 0-2.969 10.92 8.018 8.018 0 0 0 6.95 4.02zm29.64-11.71a7.734 7.734 0 0 0 1.85-.22A104.715 104.715 0 0 1 256 144a104 104 0 0 1 104 104v88.42A15.651 15.651 0 0 1 344.42 352H328a8 8 0 0 0 0 16h16.42A31.581 31.581 0 0 0 376 336.42V248a119.886 119.886 0 0 0-120-120 120.482 120.482 0 0 0-27.74 3.22 8 8 0 0 0 1.84 15.79z"/><path d="M176 232v16a16.019 16.019 0 0 0 16 16h128a16.019 16.019 0 0 0 16-16v-16a8 8 0 0 0-16 0v16H192v-16a8 8 0 0 0-16 0zm84.439 257.35a7.8 7.8 0 0 0-2.879-1.19 7.809 7.809 0 0 0-3.121 0 7.893 7.893 0 0 0-1.5.45 7.986 7.986 0 0 0-1.379.74 7.589 7.589 0 0 0-2.21 2.21 8.032 8.032 0 0 0-.741 1.38 7.919 7.919 0 0 0-.449 1.5 7.685 7.685 0 0 0 0 3.12 7.919 7.919 0 0 0 .449 1.5 8.032 8.032 0 0 0 .741 1.38 8.31 8.31 0 0 0 .99 1.22 7.766 7.766 0 0 0 1.22.99 7.986 7.986 0 0 0 1.379.74 7.893 7.893 0 0 0 1.5.45 7.69 7.69 0 0 0 3.121 0 7.8 7.8 0 0 0 2.879-1.19 7.728 7.728 0 0 0 1.221-.99 8.369 8.369 0 0 0 .989-1.22 8.032 8.032 0 0 0 .741-1.38 7.85 7.85 0 0 0 .45-1.5A7.443 7.443 0 0 0 264 496a8.055 8.055 0 0 0-2.34-5.66 8.331 8.331 0 0 0-1.221-.99z"/></g></svg>