<?xml version="1.0"?>
<svg xmlns="http://www.w3.org/2000/svg" viewBox="0 0 512 512" width="512" height="512"><g id="Users_Male_And_Female" data-name="Users Male And Female"><g id="Outline"><path d="M479.155,195.352,424,185.323V163.257a63.887,63.887,0,0,0,13.65-13.707,62.482,62.482,0,0,0,9.14-18.06l.11-.36,9.78-45.26a71.1,71.1,0,0,0,1.5-14.5,69.345,69.345,0,0,0-5.65-27.47,71.419,71.419,0,0,0-15.49-22.71A72.6,72.6,0,0,0,413.87,5.72,73.866,73.866,0,0,0,385.18,0a74.923,74.923,0,0,0-13.42,1.2,8.013,8.013,0,0,0-6.45,9.3,7.99,7.99,0,0,0,7.87,6.57,7.684,7.684,0,0,0,1.43-.13A59.954,59.954,0,0,1,385.18,16a57.359,57.359,0,0,1,40.6,16.55,54.544,54.544,0,0,1,16.244,34.909l-4.162-2.342c-12.3-6.916-23.849-6.83-34.3.227a35.252,35.252,0,0,1-39.092.022,29.662,29.662,0,0,0-16.751-5.4c-5.681,0-11.433,1.684-17.581,5.147l-1.69.95A53.856,53.856,0,0,1,332.46,50.4a8,8,0,1,0-14.72-6.25,69.026,69.026,0,0,0-5.55,27.22,70.792,70.792,0,0,0,.585,8.887c.018.223.048.445.086.667.227,1.665.492,3.326.839,4.976l9.77,45.24.11.35a62.482,62.482,0,0,0,9.14,18.06A63.667,63.667,0,0,0,344,161.413v23.911l-41.432,7.535a8,8,0,1,0,2.864,15.742l38.717-7.042a42.637,42.637,0,0,0,11.4,25.982A38.83,38.83,0,0,0,384,240c20.924,0,38.135-16.946,39.848-38.442l52.445,9.536A23.989,23.989,0,0,1,496,234.707V328a8,8,0,0,0,16,0V234.707A39.98,39.98,0,0,0,479.155,195.352ZM408,195v3.033C408,212.351,397.233,224,384,224a22.98,22.98,0,0,1-16.8-7.431,26.878,26.878,0,0,1-7.2-18.536V170.988q2.329.969,4.74,1.762a65.932,65.932,0,0,0,40.89,0q1.194-.393,2.37-.83Zm-22.8-35h-.03c-21.26,0-39.84-13.26-46.22-32.98l-9.338-43.251,8.374-4.708c3.692-2.08,6.876-3.091,9.734-3.091a13.86,13.86,0,0,1,7.843,2.686,51.248,51.248,0,0,0,56.914-.026c5.414-3.656,10.5-3.53,17.54.432l10.487,5.9L431.43,127.01C425.04,146.74,406.46,160,385.2,160Z"/><path d="M274.982,296.438l-68.551-13.71A8.022,8.022,0,0,1,200,274.883v-15.05A71.984,71.984,0,0,0,232,200v-8a8,8,0,0,0-16,0v8a56,56,0,0,1-112,0v-8a8,8,0,0,0-16,0v8a71.984,71.984,0,0,0,32,59.833v15.05a8.022,8.022,0,0,1-6.431,7.845l-68.551,13.71A56.151,56.151,0,0,0,0,351.351V504a8,8,0,0,0,16,0V351.351a40.109,40.109,0,0,1,32.155-39.224L104,300.958V310.4c0,36.179,50.082,63.5,52.214,64.647L160,377.082l3.786-2.035C165.918,373.9,216,346.579,216,310.4v-9.442l55.845,11.169A40.109,40.109,0,0,1,304,351.351V504a8,8,0,0,0,16,0V351.351A56.151,56.151,0,0,0,274.982,296.438ZM200,310.4c0,20.079-26.1,39.989-40.006,48.384C146.087,350.41,120,330.544,120,310.4V297.487a24.064,24.064,0,0,0,16-22.6v-7.011a71.831,71.831,0,0,0,48,0v7.011a24.064,24.064,0,0,0,16,22.6Z"/><path d="M56,384a8,8,0,0,0-8,8V504a8,8,0,0,0,16,0V392A8,8,0,0,0,56,384Z"/><path d="M264,384a8,8,0,0,0-8,8V504a8,8,0,0,0,16,0V392A8,8,0,0,0,264,384Z"/><path d="M456,256a8,8,0,0,0-8,8v64a8,8,0,0,0,16,0V264A8,8,0,0,0,456,256Z"/><path d="M312,256a8,8,0,0,0-8,8v24a8,8,0,0,0,16,0V264A8,8,0,0,0,312,256Z"/><path d="M71.58,272H88a8,8,0,0,0,0-16H71.58A15.631,15.631,0,0,1,56,240.42V152A103.545,103.545,0,0,1,85.07,79.88a8,8,0,0,0-11.53-11.1l-.08.09A119.592,119.592,0,0,0,40,152v88.42A31.581,31.581,0,0,0,71.58,272Z"/><path d="M104.46,62.73a8.005,8.005,0,1,0-3.98-14.95A7.991,7.991,0,0,0,97.51,58.7,8.028,8.028,0,0,0,104.46,62.73Z"/><path d="M134.1,51.01a7.734,7.734,0,0,0,1.85-.22A104.715,104.715,0,0,1,160,48,104,104,0,0,1,264,152v88.42A15.631,15.631,0,0,1,248.42,256H232a8,8,0,0,0,0,16h16.42A31.581,31.581,0,0,0,280,240.42V152A119.916,119.916,0,0,0,160.02,32h-.04a120.375,120.375,0,0,0-27.72,3.22,8,8,0,0,0,1.84,15.79Z"/><path d="M344.33,30.11a8,8,0,0,0,7.94-7.08,8.009,8.009,0,1,0-7.94,7.08Z"/><path d="M80,136v16a16.019,16.019,0,0,0,16,16H224a16.019,16.019,0,0,0,16-16V136a8,8,0,0,0-16,0v16H96V136a8,8,0,0,0-16,0Z"/><path d="M167.39,396.94a7.959,7.959,0,0,0-.74-1.38,7.589,7.589,0,0,0-2.21-2.21,7.959,7.959,0,0,0-1.38-.74,8.077,8.077,0,0,0-6.12,0,7.959,7.959,0,0,0-1.38.74,7.589,7.589,0,0,0-2.21,2.21,7.959,7.959,0,0,0-.74,1.38,7.85,7.85,0,0,0-.45,1.5,7.685,7.685,0,0,0,0,3.12,7.85,7.85,0,0,0,.45,1.5,7.959,7.959,0,0,0,.74,1.38,7.589,7.589,0,0,0,2.21,2.21,7.959,7.959,0,0,0,1.38.74,7.85,7.85,0,0,0,1.5.45,7.685,7.685,0,0,0,3.12,0,7.85,7.85,0,0,0,1.5-.45,7.959,7.959,0,0,0,1.38-.74,7.589,7.589,0,0,0,2.21-2.21,7.959,7.959,0,0,0,.74-1.38,7.85,7.85,0,0,0,.45-1.5,7.685,7.685,0,0,0,0-3.12A7.85,7.85,0,0,0,167.39,396.94Z"/><path d="M167.39,428.94a7.959,7.959,0,0,0-.74-1.38,7.766,7.766,0,0,0-.99-1.22,8.056,8.056,0,0,0-7.22-2.18,7.85,7.85,0,0,0-1.5.45,7.959,7.959,0,0,0-1.38.74,7.589,7.589,0,0,0-2.21,2.21,7.959,7.959,0,0,0-.74,1.38,7.85,7.85,0,0,0-.45,1.5,7.685,7.685,0,0,0,0,3.12,7.85,7.85,0,0,0,.45,1.5,7.959,7.959,0,0,0,.74,1.38,7.589,7.589,0,0,0,2.21,2.21,7.959,7.959,0,0,0,1.38.74,7.85,7.85,0,0,0,1.5.45,7.685,7.685,0,0,0,3.12,0,7.85,7.85,0,0,0,1.5-.45,7.959,7.959,0,0,0,1.38-.74,7.589,7.589,0,0,0,2.21-2.21,7.959,7.959,0,0,0,.74-1.38,7.85,7.85,0,0,0,.45-1.5,7.685,7.685,0,0,0,0-3.12A7.85,7.85,0,0,0,167.39,428.94Z"/><path d="M167.39,460.94a7.959,7.959,0,0,0-.74-1.38,7.589,7.589,0,0,0-2.21-2.21,7.959,7.959,0,0,0-1.38-.74,8.077,8.077,0,0,0-6.12,0,7.959,7.959,0,0,0-1.38.74,7.766,7.766,0,0,0-1.22.99,8.375,8.375,0,0,0-.99,1.22,7.959,7.959,0,0,0-.74,1.38,7.85,7.85,0,0,0-.45,1.5A7.443,7.443,0,0,0,152,464a8.05,8.05,0,0,0,2.34,5.66,7.766,7.766,0,0,0,1.22.99,7.959,7.959,0,0,0,1.38.74,7.85,7.85,0,0,0,1.5.45,7.685,7.685,0,0,0,3.12,0,7.85,7.85,0,0,0,1.5-.45,7.959,7.959,0,0,0,1.38-.74,7.766,7.766,0,0,0,1.22-.99A8.05,8.05,0,0,0,168,464a7.443,7.443,0,0,0-.16-1.56A7.85,7.85,0,0,0,167.39,460.94Z"/><path d="M167.39,492.94a7.959,7.959,0,0,0-.74-1.38,7.589,7.589,0,0,0-2.21-2.21,7.959,7.959,0,0,0-1.38-.74,8.077,8.077,0,0,0-6.12,0,7.959,7.959,0,0,0-1.38.74,7.766,7.766,0,0,0-1.22.99,8.375,8.375,0,0,0-.99,1.22,7.959,7.959,0,0,0-.74,1.38,7.85,7.85,0,0,0-.45,1.5,7.685,7.685,0,0,0,0,3.12,7.85,7.85,0,0,0,.45,1.5,7.959,7.959,0,0,0,.74,1.38,8.375,8.375,0,0,0,.99,1.22,7.766,7.766,0,0,0,1.22.99,7.959,7.959,0,0,0,1.38.74,7.85,7.85,0,0,0,1.5.45,7.685,7.685,0,0,0,3.12,0,7.85,7.85,0,0,0,1.5-.45,7.959,7.959,0,0,0,1.38-.74,7.589,7.589,0,0,0,2.21-2.21,7.959,7.959,0,0,0,.74-1.38,7.85,7.85,0,0,0,.45-1.5,7.685,7.685,0,0,0,0-3.12A7.85,7.85,0,0,0,167.39,492.94Z"/></g></g></svg>
